<svg id="Layer_1" data-name="Layer 1" xmlns="http://www.w3.org/2000/svg" width="64" height="64" viewBox="0 0 64 64"><defs><style>.cls-1{fill:#fafafa;}.cls-2{fill:#666;}.cls-3{fill:#8c6239;}</style></defs><title>notification_warning</title><rect class="cls-1" x="0.5" y="0.5" width="63" height="63"/><path class="cls-2" d="M63,1V63H1V1H63m1-1H0V64H64V0Z"/><path class="cls-3" d="M30.342,9.642c7.845,0,15.569,3.613,15.569,12.256,0,7.97-9.133,11.035-11.094,13.915-1.473,2.142-.981,5.152-5.026,5.152a3.9,3.9,0,0,1-3.923-4.105c0-7.3,10.724-8.951,10.724-14.961,0-3.308-2.2-5.269-5.882-5.269-7.845,0-4.782,8.088-10.724,8.088A3.667,3.667,0,0,1,16,20.981C16,14.969,22.862,9.642,30.342,9.642Zm-.306,35.3a5.028,5.028,0,1,1-5.027,5.028A5.051,5.051,0,0,1,30.036,44.944Z"/></svg>