<svg xmlns="http://www.w3.org/2000/svg" width="63.967" height="64.099" viewBox="0 0 63.967 64.099"><defs><style>.a{fill:#fff;stroke:#666;}.a,.b{stroke-linecap:round;stroke-linejoin:round;}.b{fill:#333;stroke:#333;}</style></defs><title>edit</title><polygon class="a" points="63.467 63.599 0.5 63.269 0.5 0.5 63.467 0.5 63.467 63.599"/><path class="b" d="M43.5,17.5v-2h-23a2,2,0,0,0-2,2v29a2,2,0,0,0,2,2h23v-14l4-4v22h-27a6.018,6.018,0,0,1-6-6v-29a6.018,6.018,0,0,1,6-6h27v3l-4,3" transform="translate(-0.104 -0.104)"/><polyline class="b" points="36.396 35.396 47.396 23.396 47.396 19.396 31.396 36.396 31.396 40.396 36.396 35.396"/></svg>