<svg xmlns="http://www.w3.org/2000/svg" width="64" height="64" viewBox="0 0 64 64">
  <defs>
    <style>
      .a {
        fill: #fff;
      }

      .b {
        fill: #666;
      }

      .c, .e, .f {
        fill: none;
      }

      .c, .d, .f {
        stroke: #006837;
      }

      .c, .d, .e, .f {
        stroke-linecap: round;
        stroke-linejoin: round;
      }

      .c {
        stroke-width: 2px;
      }

      .d, .g {
        fill: #006837;
      }

      .d, .f {
        stroke-width: 0.25px;
      }

      .e {
        stroke: gray;
      }
    </style>
  </defs>
  <title>certificate</title>
  <g>
    <rect class="a" x="0.5" y="0.5" width="63" height="63"/>
    <path class="b" d="M63,1V63H1V1H63m1-1H0V64H64V0Z"/>
  </g>
  <path class="c" d="M32.216,22.706"/>
  <path class="c" d="M12.765,22.706"/>
  <polyline class="c" points="43.157 51.882 41.941 37.412 37.078 52"/>
  <circle class="d" cx="41.941" cy="37.412" r="4.863"/>
  <path class="e" d="M60.5,59.5"/>
  <line class="f" x1="13" y1="24" x2="11" y2="24"/>
  <polyline class="g" points="13 23 13 45 50 45 50 22 13 22 13 23 11 23 11 20 52 20 52 47 11 47 11 23"/>
  <rect class="g" x="16" y="27" width="13" height="2"/>
  <rect class="g" x="16" y="32" width="13" height="2"/>
  <rect class="g" x="16" y="37" width="13" height="2"/>
</svg>
